<svg width="75" height="75" viewBox="0 0 75 75" fill="none" xmlns="http://www.w3.org/2000/svg">
<path d="M75 64.5833C75 70.3375 70.3375 75 64.5833 75H10.4167C4.66458 75 0 70.3375 0 64.5833V10.4167C0 4.6625 4.66458 0 10.4167 0H64.5833C70.3375 0 75 4.6625 75 10.4167V64.5833Z" fill="#673AB7"/>
<path d="M56.3125 40.8333C54.9583 38.9583 53 37.6667 50.4792 36.9792C50.4792 36.9792 52.6042 36.2083 54.5208 33.3333C55.6667 31.5 56.25 29.2917 56.25 26.7083C56.25 22.2292 54.625 18.7917 51.375 16.4375C48.125 14.0833 44.4583 12.5 38.2292 12.5H18.75V62.5H40.4792C46.375 62.4583 50.8125 61.1875 53.8333 58.75C56.8333 56.2708 58.3333 52.6042 58.3333 47.7083C58.3333 45 57.6667 42.7083 56.3125 40.8333ZM31.25 20.8333C31.25 20.8333 39.9375 20.8333 40.1042 20.8333C43.2708 20.8333 45.8333 23.3958 45.8333 26.5625C45.8333 29.7292 43.2708 32.2917 40.1042 32.2917C39.9375 32.2917 31.25 32.2917 31.25 32.2917V20.8333ZM41.6667 54.1667H31.25V41.6667H41.6667C45.125 41.6667 47.9167 44.4583 47.9167 47.9167C47.9167 51.375 45.125 54.1667 41.6667 54.1667Z" fill="white"/>
</svg>
