<svg width="75" height="75" viewBox="0 0 75 75" fill="none" xmlns="http://www.w3.org/2000/svg">
<path d="M23.584 18.6035L35.4492 8.49609L66.3574 37.793L47.6074 60.0586L36.3281 68.1152L20.2148 47.9004L22.8516 18.6035H23.584Z" fill="#8E5D52" stroke="white"/>
<rect x="28.6499" y="6.74585" width="7.61719" height="9.08203" transform="rotate(44.7532 28.6499 6.74585)" fill="#8E5D52"/>
<path d="M73.5854 34.1583L40.8393 1.41459C38.9548 -0.471529 35.896 -0.471529 34.0091 1.41459L27.2094 8.21431L35.8351 16.8401C37.8398 16.1628 40.1381 16.6171 41.7362 18.2152C43.3417 19.8231 43.7927 22.1413 43.099 24.1525L51.412 32.4655C53.4232 31.7726 55.7439 32.2211 57.3502 33.8299C59.5951 36.074 59.5951 39.7113 57.3502 41.957C55.1045 44.2027 51.4672 44.2027 49.2206 41.957C47.532 40.2667 47.1148 37.7865 47.9698 35.7062L40.2171 27.9535L40.2163 48.3551C40.7636 48.6267 41.2804 48.988 41.7362 49.4422C43.9811 51.6863 43.9811 55.3236 41.7362 57.5709C39.4905 59.8158 35.8516 59.8158 33.6092 57.5709C31.3643 55.3236 31.3643 51.6863 33.6092 49.4422C34.1638 48.8884 34.8057 48.4695 35.4903 48.1881V27.5964C34.8057 27.3166 34.1646 26.9002 33.6092 26.3422C31.9082 24.6437 31.4992 22.1479 32.3707 20.0593L23.8684 11.5553L1.4152 34.0068C-0.471734 35.8946 -0.471734 38.9534 1.4152 40.8395L34.1613 73.584C36.0466 75.4701 39.1046 75.4701 40.9923 73.584L73.5854 40.9917C75.4715 39.1048 75.4715 36.0444 73.5854 34.1583Z" fill="#352728"/>
</svg>
