<svg width="75" height="75" viewBox="0 0 75 75" fill="none" xmlns="http://www.w3.org/2000/svg">
<path fill-rule="evenodd" clip-rule="evenodd" d="M8.33333 75H66.6667C71.269 75 75 71.269 75 66.6667V8.33333C75 3.73096 71.269 0 66.6667 0H8.33333C3.73096 0 0 3.73096 0 8.33333V66.6667C0 71.269 3.73096 75 8.33333 75Z" fill="#352728"/>
<path fill-rule="evenodd" clip-rule="evenodd" d="M37.4984 13.5417C23.6938 13.5417 12.5 24.7783 12.5 38.6424C12.5 49.73 19.6625 59.1374 29.5984 62.4568C30.8484 62.6874 31.3047 61.9124 31.3047 61.2473C31.3047 60.6512 31.2828 59.0731 31.2703 56.9789C24.3156 58.4958 22.8484 53.614 22.8484 53.614C21.7125 50.7151 20.0734 49.9433 20.0734 49.9433C17.8031 48.3856 20.2453 48.417 20.2453 48.417C22.7531 48.5942 24.0734 51.0037 24.0734 51.0037C26.3047 54.8392 29.925 53.7317 31.35 53.0885C31.5766 51.4665 32.2234 50.3606 32.9375 49.7331C27.3859 49.0993 21.55 46.9471 21.55 37.3294C21.55 34.5889 22.5234 32.3488 24.1234 30.5935C23.8656 29.9581 23.0078 27.4074 24.3672 23.9516C24.3672 23.9516 26.4672 23.2771 31.2422 26.5243C33.2375 25.9674 35.375 25.6897 37.5016 25.6787C39.625 25.6897 41.7641 25.9674 43.7609 26.5243C48.5328 23.2771 50.6281 23.9516 50.6281 23.9516C51.9922 27.4074 51.1344 29.9581 50.8766 30.5935C52.4797 32.3488 53.4469 34.5889 53.4469 37.3294C53.4469 46.9706 47.6016 49.0931 42.0328 49.7143C42.9297 50.4892 43.7297 52.0202 43.7297 54.3623C43.7297 57.7177 43.6984 60.4237 43.6984 61.2473C43.6984 61.9187 44.1484 62.6999 45.4172 62.4536C55.3437 59.128 62.5 49.7268 62.5 38.6424C62.5 24.7783 51.3062 13.5417 37.4984 13.5417Z" fill="#8E5D52"/>
</svg>
