<svg width="32" height="32" viewBox="0 0 32 32" fill="none" xmlns="http://www.w3.org/2000/svg">
<path d="M16 0C7.164 0 0 7.27618 0 16.2505C0 23.8653 5.16267 30.2368 12.1227 32C12.048 31.7806 12 31.526 12 31.2105V28.433C11.3507 28.433 10.2627 28.433 9.98933 28.433C8.89467 28.433 7.92133 27.955 7.44933 27.0666C6.92533 26.0794 6.83467 24.5694 5.536 23.6459C5.15067 23.3385 5.444 22.9877 5.888 23.0351C6.708 23.2708 7.388 23.8422 8.028 24.69C8.66533 25.5391 8.96533 25.7314 10.156 25.7314C10.7333 25.7314 11.5973 25.6975 12.4107 25.5675C12.848 24.4394 13.604 23.4008 14.528 22.9105C9.2 22.354 6.65733 19.6618 6.65733 16.0068C6.65733 14.4332 7.31733 12.911 8.43867 11.6286C8.07067 10.3557 7.608 7.75963 8.58 6.77105C10.9773 6.77105 12.4267 8.35006 12.7747 8.77664C13.9693 8.3609 15.2813 8.12527 16.66 8.12527C18.0413 8.12527 19.3587 8.3609 20.556 8.77935C20.9 8.35548 22.3507 6.77105 24.7533 6.77105C25.7293 7.76098 25.2613 10.3678 24.8893 11.6381C26.004 12.9178 26.66 14.4359 26.66 16.0068C26.66 19.6591 24.1213 22.3499 18.8013 22.9092C20.2653 23.6851 21.3333 25.8654 21.3333 27.5081V31.2105C21.3333 31.3513 21.3027 31.4529 21.2867 31.5734C27.5213 29.3539 32 23.3412 32 16.2505C32 7.27618 24.836 0 16 0Z" fill="#C4C4C4"/>
</svg>
