<svg width="52" height="70" viewBox="0 0 52 70" fill="none" xmlns="http://www.w3.org/2000/svg">
<path d="M25.6106 12.9705C22.3761 15.2453 18.7102 17.8237 16.746 22.0895C13.3343 29.5318 23.7271 37.6498 24.1713 37.9918C24.2745 38.0712 24.3981 38.1108 24.5213 38.1108C24.6522 38.1108 24.7831 38.0661 24.8895 37.977C25.0958 37.8044 25.1543 37.5113 25.0305 37.2726C24.9929 37.2001 21.2623 29.954 21.401 24.7557C21.4501 22.9451 23.9839 20.8912 26.6663 18.7166C29.1232 16.7249 31.9081 14.4676 33.5376 11.8268C37.1147 6.01406 33.1389 0.29837 33.0983 0.241222C32.9404 0.019463 32.6489 -0.0607912 32.3996 0.0484475C32.1507 0.15837 32.0127 0.42757 32.0696 0.693763C32.0777 0.731634 32.8508 4.51138 30.6994 8.40555C29.8132 10.0147 27.8658 11.3844 25.6106 12.9705Z" fill="#8E5D52"/>
<path d="M39.2377 15.5336C39.4659 15.3617 39.5329 15.0482 39.3949 14.798C39.2567 14.5479 38.9559 14.4375 38.6888 14.539C38.1393 14.7479 25.2334 19.7227 25.2334 25.7335C25.2334 29.8771 27.0034 32.066 28.2958 33.6645C28.8027 34.2915 29.2404 34.8329 29.3846 35.2951C29.7907 36.6272 28.8287 39.0348 28.4242 39.8502C28.3075 40.0845 28.3647 40.3687 28.5631 40.5398C28.6702 40.6324 28.8041 40.6794 28.9381 40.6794C29.0521 40.6794 29.1667 40.6455 29.2657 40.5766C29.4876 40.4224 34.6889 36.7449 33.7561 32.3142C33.4085 30.6301 32.581 29.3997 31.8507 28.3138C30.7195 26.6315 29.9025 25.4163 31.142 23.172C32.5942 20.5541 39.1711 15.5834 39.2377 15.5336Z" fill="#8E5D52"/>
<path d="M5.64343 40.7747C5.42222 41.4371 5.52667 42.0942 5.94517 42.6755C7.34422 44.6179 12.2999 45.6873 19.8998 45.6873C19.9002 45.6873 19.9005 45.6873 19.9008 45.6873C20.9306 45.6873 22.0177 45.6671 23.1313 45.6271C35.2823 45.1922 39.7891 41.4068 39.975 41.2458C40.1776 41.0704 40.2318 40.7784 40.1058 40.5421C39.9798 40.306 39.7081 40.1874 39.4485 40.2589C35.169 41.4273 27.1782 41.8421 21.6356 41.8421C15.4336 41.8421 12.2751 41.3953 11.5018 41.0654C11.8986 40.5205 14.3459 39.5476 17.3785 38.9511C17.6683 38.8943 17.8675 38.6266 17.8388 38.3326C17.8101 38.0387 17.5632 37.8145 17.2677 37.8145C15.4901 37.8145 6.57531 37.9572 5.64343 40.7747Z" fill="#352728"/>
<path d="M46.3025 36.8757C43.7963 36.8757 41.4197 38.1319 41.3197 38.1851C41.0879 38.3092 40.9703 38.575 41.0339 38.8304C41.0978 39.0854 41.327 39.2646 41.5899 39.2649C41.6431 39.2649 46.9359 39.3082 47.4153 42.3323C47.8399 44.9412 42.4074 49.1683 40.2783 50.5771C40.0483 50.7292 39.959 51.0232 40.0658 51.2775C40.1567 51.4939 40.3674 51.6292 40.5946 51.6292C40.6343 51.6292 40.6745 51.6251 40.7144 51.6167C41.2197 51.5085 53.0746 48.8961 51.8212 41.9938C51.0565 37.7637 48.3979 36.8757 46.3025 36.8757Z" fill="#352728"/>
<path d="M38.1728 49.7324C38.2141 49.5114 38.1221 49.2865 37.938 49.1573L35.0955 47.1662C34.9569 47.0691 34.7817 47.0387 34.619 47.0817C34.5894 47.0892 31.6168 47.8707 27.3011 48.3499C25.5883 48.542 23.6699 48.6435 21.7528 48.6435C17.4382 48.6435 14.6171 48.1365 14.2063 47.7646C14.1519 47.6602 14.1691 47.6127 14.1788 47.5864C14.2535 47.3788 14.6535 47.1322 14.9114 47.0346C15.1961 46.9292 15.3497 46.6199 15.2611 46.3295C15.1728 46.0387 14.8732 45.8677 14.5776 45.9386C11.7262 46.6267 10.3319 47.589 10.4334 48.7985C10.6136 50.9431 15.5809 52.0438 19.7802 52.3348C20.3841 52.376 21.0372 52.397 21.7209 52.397C21.7213 52.397 21.7216 52.397 21.722 52.397C28.7048 52.397 37.6567 50.206 37.7461 50.1838C37.9647 50.1304 38.1313 49.9539 38.1728 49.7324Z" fill="#352728"/>
<path d="M16.7426 54.3349C16.9579 54.1949 17.0533 53.9287 16.9769 53.6836C16.9008 53.4385 16.6715 53.2774 16.4139 53.2808C16.0318 53.2909 12.6748 53.4424 12.4397 55.5797C12.3686 56.2185 12.5516 56.8022 12.9837 57.3142C14.1891 58.7426 17.4427 59.5916 22.9288 59.9097C23.5779 59.9486 24.2371 59.9682 24.8886 59.9682C31.8633 59.9682 36.5607 57.7843 36.7575 57.6914C36.9482 57.6011 37.074 57.4137 37.0852 57.2032C37.0964 56.9926 36.9912 56.7929 36.8113 56.6828L33.219 54.4898C33.0943 54.4138 32.9452 54.3886 32.803 54.4178C32.7803 54.4226 30.4994 54.8956 27.0572 55.3629C26.4059 55.4515 25.5902 55.4965 24.6332 55.4965C21.1947 55.4965 17.3701 54.9347 16.6366 54.5668C16.6259 54.4982 16.6395 54.4109 16.7426 54.3349Z" fill="#352728"/>
<path d="M21.638 66.5618C37.6142 66.5482 46.1888 63.7071 47.8406 61.9192C48.4254 61.2867 48.4886 60.6879 48.4389 60.2967C48.3162 59.3342 47.4394 58.745 47.34 58.681C47.1002 58.5268 46.7783 58.5671 46.5913 58.7828C46.4047 58.9986 46.4003 59.3139 46.5876 59.5295C46.6884 59.6591 46.7466 59.8761 46.452 60.171C45.7916 60.7877 39.1314 62.6598 28.0419 63.2223C26.5228 63.3011 24.9295 63.3413 23.3065 63.3416C13.3775 63.3416 6.11105 61.9815 5.15716 61.1891C5.5248 60.6608 8.09512 59.8169 10.8285 59.3394C11.1366 59.2857 11.3447 58.9954 11.2969 58.6865C11.2492 58.3776 10.9644 58.165 10.6531 58.2053C10.576 58.2159 10.3143 58.2315 10.0114 58.2501C5.50128 58.5254 0.289406 59.1391 0.0174716 61.463C-0.0651068 62.171 0.145305 62.8139 0.6431 63.3733C1.86113 64.7419 5.3621 66.5615 21.6374 66.5615C21.6377 66.5618 21.6377 66.5618 21.638 66.5618Z" fill="#352728"/>
<path d="M50.9785 62.423C50.7527 62.3185 50.4858 62.3713 50.3174 62.5532C50.294 62.5784 47.892 65.0901 40.6699 66.565C37.905 67.119 32.7152 67.4 25.2444 67.4C17.7597 67.4 10.6376 67.1055 10.5666 67.1025C10.2691 67.088 10.0147 67.3043 9.97424 67.5971C9.93363 67.8897 10.1223 68.1656 10.4096 68.234C10.4837 68.2515 17.9476 70.0001 28.1528 70.0001C33.0475 70.0001 37.8106 69.6027 42.3099 68.8182C50.6991 67.3475 51.2864 63.1877 51.3073 63.0113C51.3366 62.7648 51.204 62.5275 50.9785 62.423Z" fill="#352728"/>
</svg>
