<svg width="32" height="32" viewBox="0 0 32 32" fill="none" xmlns="http://www.w3.org/2000/svg">
<path d="M32 27.5556C32 30.0107 30.0107 32 27.5556 32H4.44444C1.99022 32 0 30.0107 0 27.5556V4.44444C0 1.98933 1.99022 0 4.44444 0H27.5556C30.0107 0 32 1.98933 32 4.44444V27.5556Z" fill="#C4C4C4"/>
<path d="M5.33325 11.5555H9.7777V26.6666H5.33325V11.5555ZM7.54214 9.7777H7.51725C6.19103 9.7777 5.33325 8.78925 5.33325 7.55458C5.33325 6.29325 6.2177 5.33325 7.56792 5.33325C8.91992 5.33325 9.75281 6.29325 9.7777 7.55458C9.7777 8.78836 8.91992 9.7777 7.54214 9.7777ZM26.6666 26.6666H22.2221V18.5786C22.2221 16.6248 21.1333 15.2915 19.3848 15.2915C18.0506 15.2915 17.3288 16.191 16.9786 17.0604C16.8506 17.3715 16.8888 18.2319 16.8888 18.6666V26.6666H12.4444V11.5555H16.8888V13.8808C17.5297 12.8888 18.5333 11.5555 21.1004 11.5555C24.2808 11.5555 26.6657 13.5555 26.6657 18.0213L26.6666 26.6666Z" fill="#352728"/>
</svg>
