<svg width="68" height="68" viewBox="0 0 68 68" fill="none" xmlns="http://www.w3.org/2000/svg">
<circle cx="34" cy="34" r="34" fill="#90C53F"/>
<path d="M32.667 24.6257H34.0003C34.0996 26.0396 34.6826 26.2938 36.167 26.2923C37.6002 26.3315 38.417 25.959 38.5003 25.1257V24.7923V24.709C38.4371 24.5669 38.3842 24.5107 38.2503 24.459L38.0003 24.3757L37.417 24.2923L36.7503 24.209L35.417 24.0423L34.3337 23.7923L33.5837 23.5423C33.1951 23.3796 33.2392 23.3815 33.0003 23.1257C32.8995 22.9688 32.8601 22.8469 32.8337 22.5423V21.7923L33.0837 21.1257C33.2273 20.8239 33.3255 20.6514 33.7503 20.2923C34.1242 19.9868 34.3728 19.868 34.917 19.7923C35.9563 19.6013 36.5213 19.6238 37.5003 19.8757C38.4034 20.114 38.8488 20.4242 39.5003 21.2923V22.3757H38.167L38.0837 21.8757C37.9912 21.6587 37.9044 21.5484 37.667 21.3757C37.2358 21.0286 36.9311 20.9164 36.2503 20.8757C35.4427 20.8707 35.0209 20.9883 34.3337 21.459C34.2141 21.7492 34.2002 21.9148 34.2503 22.209C34.3878 22.4745 34.5089 22.5719 34.8337 22.6257L38.5003 23.209C39.1425 23.3063 39.4424 23.5201 39.8337 24.2923V25.6257C38.9218 27.1304 38.0971 27.5198 36.167 27.5423C34.1335 27.3411 33.2014 27.0576 32.667 25.6257V24.6257Z" fill="white"/>
<path d="M32.2499 30.4589L30.9166 31.1255L33.3332 32.7089C34.0783 33.1367 34.4776 33.1156 35.1666 32.7089L42.2499 28.4589C42.4433 28.166 42.4923 27.9211 42.4999 27.3755V19.7089C42.4844 19.0707 42.3619 18.7865 41.9999 18.3755L34.9166 14.2089C34.3957 13.9399 34.1041 13.921 33.5832 14.2089L26.2499 18.3755C25.9098 18.6679 25.8235 18.9666 25.8332 19.7089V27.3755C25.8512 28.0481 25.9354 28.2938 26.2499 28.4589L28.9999 30.1255C29.7489 30.3854 30.1677 30.367 30.9166 30.1255C31.615 29.6396 31.8436 29.2695 31.9999 28.4589V19.9589H30.7499L30.6666 28.3755C30.0167 29.0775 29.5714 29.1421 28.5833 28.4589L27.0833 27.3755V19.3755L34.1666 15.2922L41.2499 19.3755V27.6255L34.1666 31.7089L32.2499 30.4589Z" fill="#FEFEFE"/>
<path d="M8.6665 44.7922V52.0422L8.83317 52.2922L11.8332 50.4588V46.6255L13.6665 45.4588L15.4165 46.6255V50.4588L18.5832 52.2922V44.7922L13.6665 41.6255L8.6665 44.7922Z" fill="#46483D"/>
<path d="M22.25 44.6257L27.25 41.709L32.3333 44.6257V50.3757L27.25 53.5423L22.25 50.459V44.6257Z" fill="white"/>
<path d="M35.8335 44.7922L40.8335 41.7922L42.6668 42.9588V35.1255L45.9168 37.1255V50.5422L40.8335 53.5422L35.8335 50.6255V44.7922Z" fill="#46483D"/>
<path d="M49.4165 44.7089L54.4165 41.7922L59.4165 44.7089V46.6256L56.3332 48.3756L56.0832 48.1256V46.6256L54.4165 45.6256L52.7498 46.6256V48.6256L57.4998 51.4589L54.4165 53.4589L49.4165 50.5422V44.7089Z" fill="#46483D"/>
</svg>
