<svg width="66" height="74" viewBox="0 0 66 74" fill="none" xmlns="http://www.w3.org/2000/svg">
<path d="M0 18.5V55.3752L33.0833 73.75L66 55.3333V18.5L32.9167 0L0 18.5Z" fill="#352728"/>
<path d="M31.667 27.6257H33.0003C33.0996 29.0396 33.6826 29.2938 35.167 29.2923C36.6002 29.3315 37.417 28.959 37.5003 28.1257V27.7923V27.709C37.4371 27.5669 37.3842 27.5107 37.2503 27.459L37.0003 27.3757L36.417 27.2923L35.7503 27.209L34.417 27.0423L33.3337 26.7923L32.5837 26.5423C32.1951 26.3796 32.2392 26.3815 32.0003 26.1257C31.8995 25.9688 31.8601 25.8469 31.8337 25.5423V24.7923L32.0837 24.1257C32.2273 23.8239 32.3255 23.6514 32.7503 23.2923C33.1242 22.9868 33.3728 22.868 33.917 22.7923C34.9563 22.6013 35.5213 22.6238 36.5003 22.8757C37.4034 23.114 37.8488 23.4242 38.5003 24.2923V25.3757H37.167L37.0837 24.8757C36.9912 24.6587 36.9044 24.5484 36.667 24.3757C36.2358 24.0286 35.9311 23.9164 35.2503 23.8757C34.4427 23.8707 34.0209 23.9883 33.3337 24.459C33.2141 24.7492 33.2002 24.9148 33.2503 25.209C33.3878 25.4745 33.5089 25.5719 33.8337 25.6257L37.5003 26.209C38.1425 26.3063 38.4424 26.5201 38.8337 27.2923V28.6257C37.9218 30.1304 37.0971 30.5198 35.167 30.5423C33.1335 30.3411 32.2014 30.0576 31.667 28.6257V27.6257Z" fill="#8E5D52"/>
<path d="M31.2499 33.4589L29.9166 34.1255L32.3332 35.7089C33.0783 36.1367 33.4776 36.1156 34.1666 35.7089L41.2499 31.4589C41.4433 31.166 41.4923 30.9211 41.4999 30.3755V22.7089C41.4844 22.0707 41.3619 21.7865 40.9999 21.3755L33.9166 17.2089C33.3957 16.9399 33.1041 16.921 32.5832 17.2089L25.2499 21.3755C24.9098 21.6679 24.8235 21.9666 24.8332 22.7089V30.3755C24.8512 31.0481 24.9354 31.2938 25.2499 31.4589L27.9999 33.1255C28.7489 33.3854 29.1677 33.367 29.9166 33.1255C30.615 32.6396 30.8436 32.2695 30.9999 31.4589V22.9589H29.7499L29.6666 31.3755C29.0167 32.0775 28.5714 32.1421 27.5833 31.4589L26.0833 30.3755V22.3755L33.1666 18.2922L40.2499 22.3755V30.6255L33.1666 34.7089L31.2499 33.4589Z" fill="#8E5D52"/>
<path d="M7.6665 47.7922V55.0422L7.83317 55.2922L10.8332 53.4588V49.6255L12.6665 48.4588L14.4165 49.6255V53.4588L17.5832 55.2922V47.7922L12.6665 44.6255L7.6665 47.7922Z" fill="#8E5D52"/>
<path d="M21.25 47.6254L26.25 44.7087L31.3333 47.6254V53.3754L26.25 56.5421L21.25 53.4587V47.6254Z" fill="#8E5D52"/>
<path d="M34.8335 47.7922L39.8335 44.7922L41.6668 45.9588V38.1255L44.9168 40.1255V53.5422L39.8335 56.5422L34.8335 53.6255V47.7922Z" fill="#8E5D52"/>
<path d="M48.4165 47.7089L53.4165 44.7922L58.4165 47.7089V49.6256L55.3332 51.3756L55.0832 51.1256V49.6256L53.4165 48.6256L51.7498 49.6256V51.6256L56.4998 54.4589L53.4165 56.4589L48.4165 53.5422V47.7089Z" fill="#8E5D52"/>
</svg>
