<svg width="66" height="66" viewBox="0 0 66 66" fill="none" xmlns="http://www.w3.org/2000/svg">
<circle cx="33" cy="33" r="33" fill="#352728"/>
<path d="M26.1011 38.6524L29.426 22.2771H33.4159L32.5847 26.5164H37.2396C40.2523 27.2209 40.7919 28.3354 40.3983 31.1713L39.1515 38.6524H34.9122L36.4084 31.1713C36.5489 30.2226 36.3755 29.8615 35.6603 29.5088H31.9197L30.091 38.6524H26.1011Z" fill="#8E5D52"/>
<path d="M11.1387 43.0581L14.4701 26.7659H22.9652C26.8349 27.8985 27.6326 29.2972 27.1295 32.7726C26.3919 36.3369 25.1559 37.7006 21.2995 38.8616H16.1358L15.1364 43.0581H11.1387Z" fill="#8E5D52"/>
<path d="M38.7354 43.0581L42.0668 26.7659H50.5619C54.4315 27.8985 55.2293 29.2972 54.7262 32.7726C53.9886 36.3369 52.7526 37.7006 48.8962 38.8616H43.7325L42.7331 43.0581H38.7354Z" fill="#8E5D52"/>
<path d="M17.8715 29.7581L16.874 35.8261H20.4483C21.9405 35.0921 22.4934 34.428 23.0252 32.8336C23.2632 31.2542 23.0691 30.5324 21.6952 29.7581H17.8715Z" fill="#352728"/>
<path d="M45.3857 29.7581L44.3882 35.8261H47.9625C49.4546 35.0921 50.0075 34.428 50.5393 32.8336C50.7774 31.2542 50.5833 30.5324 49.2093 29.7581H45.3857Z" fill="#352728"/>
</svg>
