<svg width="67" height="59" viewBox="0 0 67 59" fill="none" xmlns="http://www.w3.org/2000/svg">
<path d="M33.1301 35.3222C36.3989 35.3222 39.0488 32.6723 39.0488 29.4035C39.0488 26.1347 36.3989 23.4849 33.1301 23.4849C29.8613 23.4849 27.2114 26.1347 27.2114 29.4035C27.2114 32.6723 29.8613 35.3222 33.1301 35.3222Z" fill="#00D8FF"/>
<path d="M33.1305 42.9622C24.8184 42.9622 17.5556 41.9836 12.1203 40.1208C8.59506 38.9182 5.60035 37.3147 3.46632 35.4872C1.2026 33.5536 0 31.4432 0 29.4035C0 25.4891 4.29163 21.6573 11.4954 19.1578C17.3905 17.1063 25.0778 15.9626 33.1187 15.9626C41.0181 15.9626 48.5992 17.0709 54.4589 19.0988C57.8899 20.2779 60.7785 21.8106 62.83 23.5084C65.0583 25.3712 66.2374 27.4109 66.2374 29.4035C66.2374 33.4711 61.4387 37.5859 53.7044 40.1444C48.2337 41.9601 40.9238 42.9622 33.1305 42.9622ZM33.1305 18.7923C25.5022 18.7923 17.9565 19.9006 12.4387 21.8224C5.81257 24.1333 2.84144 27.293 2.84144 29.4035C2.84144 31.5965 6.03658 35.051 13.04 37.4444C18.1805 39.2011 25.1367 40.1326 33.1305 40.1326C40.629 40.1326 47.6206 39.1893 52.8201 37.4562C60.0947 35.0392 63.4195 31.5847 63.4195 29.4035C63.4195 28.2834 62.5706 26.9629 61.0261 25.6778C59.2458 24.1922 56.6519 22.8363 53.5511 21.7634C47.9743 19.8534 40.7234 18.7923 33.1305 18.7923Z" fill="#00D8FF"/>
<path d="M19.7018 58.9024C18.4992 58.9024 17.4381 58.643 16.542 58.1242C13.1582 56.1671 11.9792 50.5313 13.4058 43.0446C14.5731 36.9019 17.4263 29.6863 21.4468 22.7183C25.3965 15.8799 30.1361 9.86693 34.8168 5.79931C37.5522 3.41769 40.3229 1.67274 42.8224 0.753106C45.5459 -0.249062 47.904 -0.249061 49.6253 0.741316C53.1506 2.76923 54.3178 8.99446 52.6672 16.9646C51.5 22.6239 48.7175 29.4505 44.8267 36.2062C40.6766 43.3983 36.1963 49.1991 31.8693 52.9837C29.0632 55.4361 26.1746 57.2282 23.5336 58.1596C22.1542 58.6548 20.8572 58.9024 19.7018 58.9024ZM22.6611 23.4257L23.8873 24.1331C20.0791 30.7356 17.2612 37.8215 16.1765 43.5751C14.8678 50.4724 16.1294 54.6225 17.9451 55.6719C18.3931 55.9313 18.9826 56.0727 19.7018 56.0727C22.0481 56.0727 25.7384 54.5872 30.0064 50.8615C34.0976 47.289 38.3775 41.7241 42.3744 34.8032C46.1236 28.3068 48.7882 21.775 49.8965 16.4105C51.441 8.90013 50.1087 4.30196 48.2105 3.20547C47.2437 2.65133 45.6756 2.72207 43.7892 3.41769C41.608 4.21942 39.1438 5.78752 36.6679 7.94513C32.223 11.8123 27.6838 17.5659 23.8873 24.1449L22.6611 23.4257Z" fill="#00D8FF"/>
<path d="M46.5598 58.9376C43.3529 58.9376 39.2853 57.004 35.0408 53.3491C30.3011 49.2697 25.479 43.1977 21.4467 36.2297C17.4852 29.3914 14.6555 22.2819 13.4647 16.1863C12.7691 12.6257 12.6394 9.35982 13.0875 6.7306C13.5826 3.86558 14.7499 1.82588 16.483 0.82371C19.9965 -1.216 25.9741 0.88266 32.0579 6.29436C36.3731 10.1262 40.9005 15.9505 44.8031 22.6945C48.965 29.8866 51.7593 36.6659 52.8676 42.3016C53.5868 45.9566 53.7047 49.3522 53.1977 52.1111C52.6554 55.0469 51.4292 57.1337 49.6607 58.1595C48.7764 58.6782 47.7271 58.9376 46.5598 58.9376ZM23.8991 34.8149C27.7191 41.4174 32.4588 47.395 36.8919 51.2032C42.2092 55.7778 46.4301 56.7682 48.2576 55.7071C50.1558 54.6106 51.5471 50.1185 50.1087 42.8558C49.0476 37.5266 46.3712 31.042 42.3625 24.1211C38.6014 17.6247 34.2744 12.048 30.1832 8.4166C24.4532 3.32323 19.8079 2.17958 17.9096 3.27607C16.9428 3.83021 16.2236 5.23325 15.8817 7.214C15.4927 9.5013 15.6106 12.4253 16.2472 15.644C17.3791 21.433 20.0908 28.2359 23.8991 34.8149Z" fill="#00D8FF"/>
</svg>
