<svg width="68" height="68" viewBox="0 0 68 68" fill="none" xmlns="http://www.w3.org/2000/svg">
<circle cx="34" cy="34" r="34" fill="white"/>
<path d="M68 34C68 52.7777 52.7777 68 34 68C15.2223 68 0 52.7777 0 34C0 15.2223 15.2223 0 34 0C52.7777 0 68 15.2223 68 34ZM6.46567 34C6.46567 49.2068 18.7932 61.5343 34 61.5343C49.2068 61.5343 61.5343 49.2068 61.5343 34C61.5343 18.7932 49.2068 6.46567 34 6.46567C18.7932 6.46567 6.46567 18.7932 6.46567 34Z" fill="#CC6699"/>
<g clip-path="url(#clip0_139_9)">
<path d="M22.2579 41.5493C21.1787 42.2242 19.5527 43.3175 18.2949 44.5067C16.2298 46.4569 15.7977 49.162 16.887 49.794C17.8947 50.3781 20.2474 49.6831 21.9311 47.8466C23.6982 45.9185 24.4269 43.4742 23.6743 40.6994C23.5859 40.7521 23.4991 40.805 23.4139 40.8542L23.4157 40.8579L23.3016 40.9227C22.8622 41.1849 22.5032 41.4012 22.2579 41.5493ZM52.5843 40.6739C51.973 42.0023 51.9423 42.4298 52.128 42.5628C53.015 42.2441 54.4825 41.4762 54.4941 39.4183C54.4959 39.1101 54.4279 38.7794 54.3188 38.4338C53.3706 39.2735 52.824 40.1526 52.5843 40.6739ZM62.1019 36.6572C59.7324 36.381 57.8834 36.7134 56.4484 37.3112C56.7142 38.0028 56.9184 38.7232 56.9472 39.4489C57.0138 41.0417 55.9174 42.2205 54.7749 43.062C54.1076 43.5526 53.3977 43.8796 52.8017 44.0771C52.3253 44.2781 51.6919 44.4858 51.2424 44.3941C50.2514 44.1927 49.7238 43.3124 50.398 41.3706C50.7622 40.3197 51.8126 38.72 53.5082 37.3421C53.1218 36.5465 52.691 35.7359 52.4715 34.9911C52.0389 33.523 51.9082 32.6355 51.9082 32.6355C51.9082 32.6355 50.5106 35.533 48.7076 38.1681C48.6036 38.3212 48.4999 38.4714 48.3959 38.6211C48.75 39.4441 49.029 40.3144 49.0668 41.1919C49.1332 42.7844 48.4437 43.9887 47.2995 44.8284C46.6801 45.2851 46.0194 45.6005 45.4524 45.8012C45.0899 45.9595 44.3525 46.2199 43.304 46.29C42.7305 46.3292 42.1789 46.2937 41.8709 46.0603C41.4469 45.74 41.3958 45.3447 41.6154 44.8047C41.801 44.3463 43.19 42.7607 44.3546 41.3724C44.6763 40.989 44.9826 40.5973 45.2567 40.2345L45.25 40.219C45.25 40.2192 45.461 39.9467 45.8033 39.4714C45.3777 38.555 44.8381 37.6009 44.5844 36.7357C44.1518 35.2675 44.0209 34.3798 44.0209 34.3798C44.0209 34.3798 42.6043 38.0117 41.1285 40.9108C39.9864 43.1562 39.2235 44.5169 38.8798 45.1131L38.8763 45.137C38.8763 45.137 38.825 45.2241 38.7366 45.3603L38.6705 45.4708L38.6686 45.4606C38.2855 46.0264 37.4258 47.135 36.5713 47.135C34.2254 47.135 35.0867 42.3706 35.0867 42.3706C35.0867 42.3706 34.4009 44.1354 33.6278 45.6497C32.9982 46.8846 32.4245 47.9308 31.1698 47.9308C30.8089 47.9308 30.2369 47.9204 29.7618 47.4688C28.6842 46.445 27.8603 43.8455 28.0219 41.8322C28.1597 40.1203 28.4236 38.9346 28.7845 37.9453C28.1409 38.296 27.3971 38.7118 26.6396 39.1565L25.475 39.8428L25.5126 39.911C26.476 41.7746 26.7331 45.8576 24.6323 48.9919C22.5317 52.1278 18.6214 54.0357 14.8115 52.9763C13.5822 52.6337 11.7251 50.0906 13.3269 46.5458C14.7398 43.4199 20.3866 40.4645 21.8747 39.727L22.2832 39.5021C19.3162 36.906 11.9073 33.4039 10.8689 28.0245C10.576 26.5101 11.286 22.8887 15.7324 18.7256C19.4724 15.2252 24.675 12.5439 29.481 10.8353C37.5551 7.96517 46.086 9.6582 47.3984 14.806C48.6888 19.8686 44.2968 25.9244 38.6721 28.1013C33.6501 30.0447 29.4979 29.7365 27.7921 29.1763C25.8531 28.5392 24.7159 27.2598 24.4385 26.5375C24.3294 26.2548 24.1419 25.7798 24.4385 25.6162C24.6205 25.5157 24.6936 25.5396 25.1805 26.0778C25.6437 26.5888 27.506 27.9602 31.0436 27.5631C40.3269 26.5224 45.9189 19.3049 44.1518 15.421C42.9143 12.7024 35.7592 11.4759 26.8199 15.9337C15.9077 21.3744 15.3154 25.8596 15.2219 27.5631C14.9663 32.2491 21.0012 34.714 24.2666 38.1989L24.3923 38.337C25.0034 37.9998 25.6488 37.6438 26.282 37.2964C27.9283 36.3917 29.481 35.5432 30.2044 35.148C31.3536 33.4775 33.6856 31.634 35.3693 31.634C38.0608 31.634 37.1364 35.5026 37.1364 35.5026C37.1364 35.5026 37.191 35.3255 37.2641 35.3239C37.3407 35.3218 37.637 34.8143 38.4679 35.1174C39.3224 35.4309 39.1281 36.0306 39.1335 36.0919C39.1437 36.2109 38.1239 39.6501 37.7001 41.8561C37.4973 42.9088 37.6147 43.6756 37.6746 43.6756C37.7579 43.6756 37.9283 43.408 38.0866 43.1202L38.0831 43.1117C38.0831 43.1117 38.2021 42.8937 38.4015 42.502L38.4407 42.42L38.4423 42.4238C38.6774 41.9638 39.0075 41.2875 39.3888 40.4494C40.1361 38.8024 42.9874 32.4433 43.2293 31.7399C43.4709 31.0364 43.5969 30.3091 43.7162 29.9972C43.8336 29.6855 44.8415 29.4504 46.0194 29.459C47.1974 29.4676 47.3169 29.97 47.325 30.074C47.3336 30.1777 46.765 31.573 46.6339 32.5591C46.5046 33.5455 46.629 34.0375 46.7363 34.8656C46.8061 35.407 47.1447 36.0937 47.5451 36.8721C48.764 34.879 50.9086 31.0668 51.1147 29.9988C51.2558 29.2682 51.4823 28.568 51.6016 28.2561C51.7207 27.9444 52.727 27.7095 53.9048 27.7179C55.0829 27.7265 55.2019 28.2289 55.2105 28.3329C55.2191 28.4369 54.6486 29.8319 54.5194 30.8183C54.3899 31.8028 54.5145 32.2969 54.6215 33.1247C54.7136 33.8332 55.2616 34.7855 55.8049 35.8686C57.2874 35.1378 59.0324 34.6474 61.0754 34.6372C61.9214 34.6323 62.9038 34.7172 63.4111 34.8755V18.579C63.4111 17.4292 62.8219 16.3698 61.8262 15.7958L35.2419 0.430628C34.2479 -0.143543 33.0307 -0.143543 32.0364 0.430628L5.52547 15.7884C4.53124 16.3626 4 17.4239 4 18.5718V49.3154C4 50.4633 4.53448 51.5246 5.5271 52.0986L32.0808 67.4684C33.0748 68.0444 34.2802 68.0444 35.2742 67.4684L61.8399 52.0986C62.8339 51.5228 63.413 50.4631 63.413 49.3154V36.8907C63.0758 36.7914 62.5821 36.7132 62.1019 36.6572ZM33.502 35.0473C32.9318 35.686 31.9598 37.333 31.5052 38.7116C30.6012 41.4488 30.9928 44.2305 31.6328 44.3976C32.3801 44.5933 33.606 40.9345 34.1929 39.5035C34.5608 38.6074 35.9909 34.6302 35.6776 34.0988C35.4329 33.6831 34.4197 34.0187 33.502 35.0473ZM43.8443 44.273C43.8443 44.273 43.664 44.4436 43.7419 44.4911C43.8475 44.5543 44.0757 44.4723 44.3242 44.3428C45.0274 43.9003 46.6054 42.7963 46.6088 41.1626C46.6088 41.1151 46.607 41.0691 46.6037 41.0197C46.2377 41.5001 45.9005 41.9276 45.6095 42.2903C45.1124 42.9086 43.8443 44.273 43.8443 44.273Z" fill="#CC6699"/>
</g>
<defs>
<clipPath id="clip0_139_9">
<rect width="59.413" height="68" fill="white" transform="translate(4)"/>
</clipPath>
</defs>
</svg>
