<svg width="53" height="70" viewBox="0 0 53 70" fill="none" xmlns="http://www.w3.org/2000/svg">
<ellipse cx="26.2202" cy="10.5002" rx="24" ry="8.5" fill="#8E5D52"/>
<rect x="8.22021" y="25.0002" width="37" height="30" fill="#8E5D52"/>
<path d="M22.0649 69.9555C15.5126 69.4832 9.03641 67.8339 5.06464 65.6259C2.80232 64.3683 1.07874 62.8227 0.402405 61.4452L0 60.6256V34.9175V9.20944L0.31842 8.5629C1.74139 5.6739 6.28273 3.06945 12.6222 1.50675C14.7741 0.976246 17.8808 0.44795 20.4152 0.18155C23.0032 -0.0905496 29.8629 -0.0491515 32.4444 0.254548C39.3056 1.06065 45.1441 2.86531 48.7421 5.29221C50.1297 6.22811 51.5535 7.72564 52.0358 8.75644L52.4494 9.64023L52.414 35.2705L52.3786 60.901L52.0466 61.5754C51.8641 61.9463 51.3126 62.6761 50.8211 63.197C47.8293 66.3685 41.4119 68.7146 32.9944 69.7142C31.2787 69.918 23.8253 70.0828 22.0651 69.9559L22.0649 69.9555ZM34.14 47.9271C34.1148 47.8614 33.1352 46.9888 31.9633 45.9879C30.7913 44.987 29.7819 44.121 29.7202 44.0635C29.6585 44.006 29.875 43.8025 30.2014 43.6112C30.5277 43.4199 31.153 42.8876 31.5908 42.4285C32.8713 41.0858 33.4755 39.4272 33.4755 37.2546C33.4755 35.1158 32.8239 33.3901 31.5188 32.0728C30.2035 30.745 28.6932 30.1745 26.4939 30.1745C23.1038 30.1745 20.5003 32.1526 19.6693 35.3596C19.3834 36.4627 19.3849 38.6917 19.6722 39.6698C20.4217 42.2212 22.4627 44.0742 25.0029 44.5093C25.8625 44.6565 25.9789 44.72 26.5649 45.3607C26.9132 45.7415 27.6279 46.5016 28.1532 47.0498L29.1082 48.0465H31.647C33.0434 48.0465 34.1652 47.9928 34.14 47.9271V47.9271ZM25.4334 40.8186C24.8222 40.5 24.5912 40.2526 24.2426 39.5441C23.9734 38.9969 23.9274 38.6856 23.9244 37.3921C23.9214 36.0778 23.9632 35.7938 24.2443 35.2231C24.7041 34.2892 25.3378 33.8471 26.3181 33.7762C27.6827 33.6772 28.4703 34.3469 28.8831 35.9563C29.3892 37.9295 28.8327 40.0274 27.6183 40.7236C26.9813 41.0889 26.031 41.1302 25.4334 40.8186V40.8186ZM14.1803 44.4813C16.8421 43.9765 18.3531 42.4285 18.3531 40.2064C18.3531 38.235 17.3776 37.0863 14.6815 35.8827C13.1381 35.1937 12.579 34.7613 12.579 34.256C12.579 33.8372 13.1096 33.3782 13.7272 33.2629C14.3302 33.1503 15.9296 33.4281 16.874 33.8096L17.6657 34.1294V32.377V30.6245L16.8065 30.4339C16.2754 30.3161 15.1596 30.2455 13.8851 30.2491C12.0798 30.2491 11.7263 30.293 11.0469 30.5628C9.06249 31.3506 8.1208 32.6926 8.13586 34.7113C8.14996 36.6011 9.14692 37.7799 11.6281 38.8404C13.0921 39.4661 13.6789 39.9426 13.6789 40.5056C13.6789 41.7021 11.6853 41.8494 9.57452 40.8088C8.99647 40.5238 8.47712 40.2674 8.42041 40.239C8.36371 40.2106 8.31732 41.0293 8.31732 42.0582C8.31732 43.9206 8.3193 43.9296 8.65649 44.058C9.92628 44.5407 12.7328 44.7558 14.1803 44.4813ZM44.6111 42.7536V41.1727H42.2053H39.7994V35.7423V30.312H37.6685H35.5377V37.3233V44.3346H40.0743H44.6111V42.7536V42.7536ZM29.7636 15.0486C33.9981 14.7549 37.1722 14.2004 39.9654 13.2665C42.748 12.3361 44.3918 11.2103 44.7595 9.98312C44.9012 9.51022 44.891 9.33085 44.6931 8.81235C43.8053 6.48785 38.8461 4.70192 31.2681 3.97782C28.0266 3.66802 22.1314 3.76845 19.0406 4.18595C14.3246 4.82315 10.4973 6.00672 8.79553 7.35422C5.35302 10.0802 8.99349 13.0785 17.4595 14.4897C21.1304 15.1016 25.8863 15.3176 29.7637 15.0486H29.7636Z" fill="#352728"/>
</svg>
