<svg width="66" height="68" viewBox="0 0 66 68" fill="none" xmlns="http://www.w3.org/2000/svg">
<g clip-path="url(#clip0_301_43)">
<path d="M54.5782 0.266846L54.0986 2.7674C53.3565 7.50636 53.6251 8.8622 55.6588 10.6209L57.6219 12.2453L55.5882 21.3139C54.3733 26.7244 52.883 31.2587 51.9367 32.7488C51.1247 34.0345 50.1777 35.927 49.9736 36.9439C49.6344 38.1595 48.4832 39.3805 46.7242 40.4618C45.1702 41.3444 42.1196 43.7104 39.9585 45.6098C38.2317 47.1639 37.0422 48.1171 36.396 48.5261L34.2855 50.1953C33.743 51.0004 33.3347 51.8875 33.0768 52.8238C32.9295 53.5084 33.0131 53.9619 33.2303 54.295C33.4414 54.6142 33.8059 54.8383 34.3047 54.9788C34.8949 55.1177 35.5027 55.1668 36.1082 55.1261C37.4773 55.0325 38.8326 54.7923 40.1503 54.4101C40.5977 54.2881 40.9492 54.173 41.2562 54.0709C41.7297 53.4892 42.8233 52.3887 44.7611 50.477C49.903 45.4049 51.8661 42.6299 49.8393 43.3781C49.091 43.6467 49.4295 42.9683 50.7149 41.613C53.4271 38.9715 54.9811 34.9808 58.2297 22.4651C60.8007 12.5843 60.8007 12.4435 62.6939 12.4435C63.5826 12.4435 66.096 12.597 66.096 12.597V0.266846H60.3271H54.5782ZM79.1295 20.5081C78.7204 20.5081 78.0428 21.1221 77.6399 21.8C76.8977 23.015 77.7742 23.7569 88.9404 30.7278C95.5719 34.9294 100.919 38.511 100.784 38.7858C100.65 38.9845 95.2335 42.5078 88.7417 46.5691C76.9614 53.8729 76.8977 53.9427 77.9783 55.4331C79.3344 57.1921 77.9783 57.7991 93.2696 48.2575L104.372 41.1525V35.8058L91.9841 28.1569C85.2882 23.9616 79.4687 20.5784 79.1295 20.5081ZM-23.7394 21.2564C-24.0784 21.2564 -29.8982 24.7099 -36.5941 28.8349L-49.1162 36.4834V41.8302L-36.6645 49.6136C-29.7575 53.8729 -23.9377 57.3962 -23.6691 57.3962C-23.4005 57.3962 -22.8569 56.7823 -22.3133 56.0409C-21.5011 54.7554 -22.1854 54.2113 -33.6203 46.9721C-44.5116 40.1357 -45.6627 39.1887 -44.5755 38.4473C-43.8976 37.9738 -38.7557 34.7889 -33.2046 31.3418C-20.5482 23.5587 -21.2261 24.0959 -22.2429 22.4715C-22.6458 21.8 -23.3302 21.1924 -23.7331 21.2564H-23.7394ZM31.7975 21.4034C29.9303 21.3907 25.914 24.2366 13.8908 34.0537C13.3727 35.2878 13.328 36.1381 13.5646 36.6883C13.7181 37.0659 13.9995 37.3276 14.3896 37.5195C14.7733 37.7113 15.2722 37.8264 15.8222 37.8717C16.9158 37.9677 18.2076 37.795 19.25 37.5901L19.9536 37.4304C20.1944 37.1074 20.5106 36.848 20.8745 36.6753C21.6164 36.2662 24.7309 33.4267 27.8452 30.3825C33.3262 24.8314 34.6117 22.3244 32.38 21.5122C32.1966 21.4393 32.0009 21.4024 31.8044 21.4034H31.7975ZM45.8417 25.2598C44.1986 25.3046 41.237 27.2104 36.1658 31.2587C33.6202 33.3244 32.0085 34.4374 31.1452 34.6677L27.7945 37.3153C26.5344 39.6177 26.3489 41.0436 26.6815 41.8302C26.7647 42.0244 26.8856 42.2001 27.037 42.3467C27.1885 42.494 27.3676 42.6099 27.564 42.6874C28.0524 42.8801 28.5735 42.9775 29.0992 42.9752C30.3539 42.9614 31.6018 42.7788 32.8082 42.4311C33.4367 42.2623 34.0576 42.0666 34.6693 41.8432L34.855 41.7665L35.1934 41.5869C35.8335 40.7619 37.3039 39.2078 39.1457 37.4174C44.966 31.8023 47.9399 27.8116 47.332 26.3215C47.0573 25.5988 46.5838 25.2343 45.8417 25.2598ZM30.3393 32.1668C29.8666 32.218 28.8045 33.0366 26.8925 34.7122C24.1297 37.1549 21.1175 38.5624 20.075 37.9354C19.8328 37.9899 19.5898 38.0413 19.346 38.0889C18.2844 38.3 16.9605 38.4726 15.7774 38.3767C15.2199 38.3429 14.6736 38.2063 14.1657 37.9738C13.6869 37.7551 13.3046 37.3683 13.0913 36.8863C12.8547 36.3108 12.8547 35.5947 13.1233 34.6799L8.96632 38.0951L-0.441211 45.8784V58.4967L30.3846 34.2133C30.3785 33.9478 30.413 33.6822 30.4867 33.4267C30.7231 32.5697 30.7108 32.1349 30.3393 32.1732V32.1668ZM43.6038 36.2532C43.1364 36.2532 42.3567 36.9124 41.1096 38.2363C39.4143 40.0459 36.7475 41.798 35.3346 42.1564L35.1167 42.2715C34.8849 42.3674 34.6501 42.4572 34.4137 42.5401C34.03 42.6682 33.5311 42.8217 32.9556 42.9752C31.8044 43.2883 30.3716 43.5761 29.0923 43.5439C28.4898 43.5431 27.892 43.4265 27.3338 43.1985C26.8073 42.9821 26.3856 42.5692 26.157 42.0474C25.7861 41.1587 25.9332 39.9116 26.7454 38.1403L-0.447581 59.5581V67.2647H11.4989L36.8373 47.3619C37.4957 46.6328 38.4873 45.6352 39.8242 44.3881C43.405 41.0689 44.2178 39.9246 44.2178 38.2294C44.2178 36.9124 44.0704 36.2471 43.6038 36.2471V36.2532ZM49.6344 48.7241L47.4663 50.886C46.2515 52.0372 44.0835 53.4569 42.5992 54.0647L42.3053 54.1921L42.2861 54.2244L42.2224 54.2881C42.1649 54.3333 42.1388 54.3395 42.0943 54.3587C41.5018 54.5828 40.9001 54.7815 40.2908 54.9534C38.9355 55.3479 37.5418 55.5943 36.1335 55.6886C35.4682 55.7316 34.7997 55.6733 34.1512 55.516C33.5887 55.3924 33.0922 55.064 32.7568 54.5951C32.4498 54.1223 32.3608 53.4892 32.5335 52.7087C32.6708 52.153 32.8742 51.6166 33.1405 51.1101L12.6949 67.2647H39.8879L43.1364 63.5427C47.6007 58.3363 49.6344 54.6142 49.6344 51.4294V48.7241Z" fill="#E154D3"/>
</g>
<defs>
<clipPath id="clip0_301_43">
<rect width="66" height="67.5349" fill="white"/>
</clipPath>
</defs>
</svg>
