<svg width="75" height="75" viewBox="0 0 75 75" fill="none" xmlns="http://www.w3.org/2000/svg">
<path d="M75 0H0V75H75V0Z" fill="#1976D2"/>
<path d="M44.7709 33.3333H17.1396V40.1333H27.0501V70.8333H34.9021V40.1333H44.7709V33.3333Z" fill="white"/>
<path d="M69.1543 41.8416C69.1543 41.8416 65.4314 39.3582 61.223 39.3582C57.0147 39.3582 55.5001 41.3582 55.5001 43.4957C55.5001 49.0124 70.8772 48.4603 70.8772 59.5624C70.8772 76.6645 47.4313 69.0791 47.4313 69.0791V60.8749C47.4313 60.8749 51.9147 64.2541 57.2918 64.2541C62.6688 64.2541 62.4647 60.7374 62.4647 60.2541C62.4647 55.152 47.2251 55.152 47.2251 43.8416C47.2251 28.4645 69.4293 34.5312 69.4293 34.5312L69.1543 41.8416Z" fill="white"/>
</svg>
